<svg width="40" height="40" viewBox="0 0 40 40" fill="none" xmlns="http://www.w3.org/2000/svg">
<path d="M25.6836 17.2797L20.9055 10.1698C20.8034 10.0262 20.6675 9.90966 20.5097 9.8303C20.3519 9.75095 20.1769 9.71121 20 9.71455C19.6509 9.71455 19.3018 9.86629 19.0945 10.1806L14.3164 17.2797H9.09091C8.49091 17.2797 8 17.7675 8 18.3636C8 18.4611 8.01091 18.5587 8.04364 18.6562L10.8145 28.7034C11.0655 29.6138 11.9055 30.2858 12.9091 30.2858H27.0909C28.0945 30.2858 28.9345 29.6138 29.1964 28.7034L31.9673 18.6562L32 18.3636C32 17.7675 31.5091 17.2797 30.9091 17.2797H25.6836ZM16.7273 17.2797L20 12.5109L23.2727 17.2797H16.7273ZM20 25.9504C18.8 25.9504 17.8182 24.975 17.8182 23.7828C17.8182 22.5905 18.8 21.6151 20 21.6151C21.2 21.6151 22.1818 22.5905 22.1818 23.7828C22.1818 24.975 21.2 25.9504 20 25.9504Z" fill="white"/>
</svg>
